<?xml version="1.0" encoding="utf-8"?>
<!-- Generator: Adobe Illustrator 25.4.1, SVG Export Plug-In . SVG Version: 6.00 Build 0)  -->
<svg version="1.1" id="Livello_1" xmlns="http://www.w3.org/2000/svg" xmlns:xlink="http://www.w3.org/1999/xlink" x="0px" y="0px"
	 viewBox="0 0 800 400" style="enable-background:new 0 0 800 400;" xml:space="preserve">
<style type="text/css">
	.st0{fill:none;stroke:#000000;stroke-miterlimit:10;}
</style>
<path d="M766.2,181.2L605.5,20.5c-4.3-4.3-11.3-4.3-15.6,0l0,0c-4.3,4.3-4.3,11.3,0,15.6l155,153H37c-6.1,0-11,4.9-11,11v0
	c0,6.1,4.9,11,11,11h707.9l-155,153c-4.3,4.3-4.3,11.3,0,15.6h0c4.3,4.3,11.3,4.3,15.6,0l160.7-160.7c5-5,7.8-11.7,7.8-18.8v0
	C774,193,771.2,186.2,766.2,181.2z"/>
</svg>
