<?xml version="1.0" encoding="utf-8"?>
<!-- Generator: Adobe Illustrator 25.4.1, SVG Export Plug-In . SVG Version: 6.00 Build 0)  -->
<svg version="1.1" id="Livello_1" xmlns="http://www.w3.org/2000/svg" xmlns:xlink="http://www.w3.org/1999/xlink" x="0px" y="0px"
	 viewBox="0 0 800 400" style="enable-background:new 0 0 800 400;" xml:space="preserve">
<style type="text/css">
	.st0{fill:none;stroke:#000000;stroke-miterlimit:10;}
</style>
<path d="M33.8,218.8l160.7,160.7c4.3,4.3,11.3,4.3,15.6,0h0c4.3-4.3,4.3-11.3,0-15.6l-155-153H763c6.1,0,11-4.9,11-11v0
	c0-6.1-4.9-11-11-11H55.1l155-153c4.3-4.3,4.3-11.3,0-15.6l0,0c-4.3-4.3-11.3-4.3-15.6,0L33.8,181.2c-5,5-7.8,11.7-7.8,18.8v0
	C26,207,28.8,213.8,33.8,218.8z"/>
</svg>
